# xmcd
#
# Track frame offsets: 
#        150
#        18105
#        36388
#        50008
#        66393
#        91540
#        107655
#        122373
#        139173
#        157328
#        170413
#        186745
#        202458
#
# Disc length: 2871 seconds
#
# Revision: 0
# Processed by: cddbd v1.5.2PL0 Copyright (c) Steve Scherf et al.
# Submitted via: ExactAudioCopy v0.95b3
#
DISCID=c10b350d
DTITLE=Aretha Franklin  - 30 Greatest Hits [CD2]
DYEAR=1900
DGENRE=
TTITLE0=Call Me
TTITLE1=Spirit In The Dark
TTITLE2=Don't Play That Song
TTITLE3=You're All I Need To Get By
TTITLE4=Bridge Over Troubled Water
TTITLE5=Spanish Harlem
TTITLE6=Rock Steady
TTITLE7=Oh Me Oh My (I'm A Fool For You Baby)
TTITLE8=Day Dreaming
TTITLE9=Wholy Holy
TTITLE10=Angel
TTITLE11=Until You Come Back To Me (That's What I'm Gonna Do)
TTITLE12=I'm In Love
EXTD=
EXTT0=
EXTT1=
EXTT2=
EXTT3=
EXTT4=
EXTT5=
EXTT6=
EXTT7=
EXTT8=
EXTT9=
EXTT10=
EXTT11=
EXTT12=
PLAYORDER=
